<svg xmlns="http://www.w3.org/2000/svg" width="1600" height="950" viewBox="0 0 1600 950">
<rect width="1600" height="950" fill="#f8fafc"/>
<text x="800" y="55" text-anchor="middle" font-family="Arial" font-size="32" font-weight="bold" fill="#111827">Cloud Operations Dashboard</text>
<text x="800" y="88" text-anchor="middle" font-family="Arial" font-size="17" fill="#4b5563">AWS Cloud Architecture</text>

<rect x="70" y="140" width="1460" height="470" rx="22" fill="#eef2ff" stroke="#6366f1" stroke-width="3"/>
<text x="100" y="180" font-family="Arial" font-size="24" font-weight="bold" fill="#3730a3">AWS VPC</text>

<rect x="110" y="220" width="430" height="330" rx="18" fill="#ffffff" stroke="#2563eb" stroke-width="3"/>
<text x="135" y="255" font-family="Arial" font-size="21" font-weight="bold" fill="#1e3a8a">Public Application Subnet</text>

<rect x="145" y="290" width="360" height="105" rx="14" fill="#eff6ff" stroke="#3b82f6" stroke-width="2"/>
<text x="325" y="325" text-anchor="middle" font-family="Arial" font-size="20" font-weight="bold">Amazon EC2</text>
<text x="325" y="355" text-anchor="middle" font-family="Arial" font-size="16">Cloud Operations Dashboard</text>
<text x="325" y="380" text-anchor="middle" font-family="Arial" font-size="15">Flask + Docker</text>

<rect x="145" y="420" width="360" height="90" rx="14" fill="#f0fdf4" stroke="#22c55e" stroke-width="2"/>
<text x="325" y="455" text-anchor="middle" font-family="Arial" font-size="18" font-weight="bold">Security Group</text>
<text x="325" y="482" text-anchor="middle" font-family="Arial" font-size="15">SSH restricted to approved source</text>

<rect x="590" y="220" width="430" height="330" rx="18" fill="#ffffff" stroke="#059669" stroke-width="3"/>
<text x="615" y="255" font-family="Arial" font-size="21" font-weight="bold" fill="#065f46">Private Database Subnets</text>

<rect x="625" y="290" width="360" height="105" rx="14" fill="#ecfdf5" stroke="#10b981" stroke-width="2"/>
<text x="805" y="325" text-anchor="middle" font-family="Arial" font-size="20" font-weight="bold">Amazon RDS</text>
<text x="805" y="355" text-anchor="middle" font-family="Arial" font-size="16">MySQL 8.4</text>
<text x="805" y="380" text-anchor="middle" font-family="Arial" font-size="15">Private + encrypted</text>

<rect x="625" y="420" width="360" height="90" rx="14" fill="#f0fdf4" stroke="#22c55e" stroke-width="2"/>
<text x="805" y="455" text-anchor="middle" font-family="Arial" font-size="18" font-weight="bold">Database Security Group</text>
<text x="805" y="482" text-anchor="middle" font-family="Arial" font-size="15">MySQL 3306 from EC2 SG</text>

<rect x="1070" y="220" width="410" height="150" rx="18" fill="#ffffff" stroke="#f59e0b" stroke-width="3"/>
<text x="1275" y="260" text-anchor="middle" font-family="Arial" font-size="21" font-weight="bold">Amazon S3</text>
<text x="1275" y="292" text-anchor="middle" font-family="Arial" font-size="16">Private object storage</text>
<text x="1275" y="322" text-anchor="middle" font-family="Arial" font-size="15">Public access blocked</text>
<text x="1275" y="348" text-anchor="middle" font-family="Arial" font-size="15">AES256 encryption</text>

<rect x="1070" y="400" width="410" height="150" rx="18" fill="#ffffff" stroke="#8b5cf6" stroke-width="3"/>
<text x="1275" y="440" text-anchor="middle" font-family="Arial" font-size="21" font-weight="bold">CloudWatch</text>
<text x="1275" y="472" text-anchor="middle" font-family="Arial" font-size="16">Application monitoring</text>
<text x="1275" y="502" text-anchor="middle" font-family="Arial" font-size="15">Logs + operational visibility</text>

<path d="M505 342 H625" stroke="#111827" stroke-width="4" fill="none" marker-end="url(#arrow)"/>
<text x="565" y="325" text-anchor="middle" font-family="Arial" font-size="14" fill="#374151">private DB traffic</text>

<path d="M505 342 H1070" stroke="#111827" stroke-width="3" stroke-dasharray="8 8" fill="none" marker-end="url(#arrow)"/>
<text x="790" y="315" text-anchor="middle" font-family="Arial" font-size="14" fill="#374151">application access</text>

<path d="M505 475 H1070" stroke="#111827" stroke-width="3" stroke-dasharray="8 8" fill="none" marker-end="url(#arrow)"/>
<text x="790" y="495" text-anchor="middle" font-family="Arial" font-size="14" fill="#374151">logs / monitoring</text>

<rect x="70" y="660" width="1460" height="210" rx="22" fill="#ffffff" stroke="#64748b" stroke-width="3"/>
<text x="100" y="700" font-family="Arial" font-size="24" font-weight="bold" fill="#334155">Engineering &amp; Operations</text>

<rect x="120" y="735" width="300" height="95" rx="14" fill="#f8fafc" stroke="#334155" stroke-width="2"/>
<text x="270" y="772" text-anchor="middle" font-family="Arial" font-size="19" font-weight="bold">GitHub Actions</text>
<text x="270" y="800" text-anchor="middle" font-family="Arial" font-size="15">CI validation + CD workflow</text>

<rect x="470" y="735" width="300" height="95" rx="14" fill="#f8fafc" stroke="#334155" stroke-width="2"/>
<text x="620" y="772" text-anchor="middle" font-family="Arial" font-size="19" font-weight="bold">Terraform</text>
<text x="620" y="800" text-anchor="middle" font-family="Arial" font-size="15">Infrastructure configuration</text>

<rect x="820" y="735" width="300" height="95" rx="14" fill="#f8fafc" stroke="#334155" stroke-width="2"/>
<text x="970" y="772" text-anchor="middle" font-family="Arial" font-size="19" font-weight="bold">IAM</text>
<text x="970" y="800" text-anchor="middle" font-family="Arial" font-size="15">AWS permissions</text>

<rect x="1170" y="735" width="300" height="95" rx="14" fill="#fff7ed" stroke="#ea580c" stroke-width="2"/>
<text x="1320" y="772" text-anchor="middle" font-family="Arial" font-size="19" font-weight="bold">Deployment Stage</text>
<text x="1320" y="800" text-anchor="middle" font-family="Arial" font-size="15">EC2 deployment placeholder</text>

<defs>
<marker id="arrow" markerWidth="10" markerHeight="10" refX="9" refY="3" orient="auto">
<path d="M0,0 L0,6 L9,3 z" fill="#111827"/>
</marker>
</defs>

<text x="800" y="920" text-anchor="middle" font-family="Arial" font-size="14" fill="#64748b">Runtime architecture and engineering workflow — verified project components only</text>
</svg>
